<svg xmlns="http://www.w3.org/2000/svg" viewBox="0 0 1500 1500"><defs><style>.cls-1{fill:#00a08d;}.cls-2{fill:#eac423;}.cls-3{fill:#fff;}.cls-4{fill:#e84918;}</style></defs><g id="_00_Cuerpos" data-name="00_Cuerpos"><g id="Wing1"><path class="cls-1" d="M524,417l-.1,0"/><path class="cls-1" d="M540,411.6l-.24.06"/></g></g><g id="_00_Ojos" data-name="00_Ojos"><g id="_00_Body" data-name="00_Body"><path class="cls-2" d="M1103,437c14.88-5.23,30.17-9.19,45.26-13.76,43.94-13.28,86.86-29.71,129.47-46.8,14.37-5.75,22.23-5.77,34.3-14.11l-1.1-.58c-2.19-1.15-7.72-1.26-7.72-1.26-58.74,2.7-342.34,120.76-342.34,120.76L914,498.56,818.1,532.07c-6.29,2.57-12.22,5.16-17.79,7.72-1.71.22-3.64.42-5.91.62-8.42.76-16.9-.48-25.19-2.17a236,236,0,0,1-25.75-6.75c7.33,1.22,21,1.71,29.86,2.76a88.24,88.24,0,0,0,23.46-.92c17.09-3.49,10.37,0,25.19-7.55l3.1-1.65.21-.12c16.18-9.72,15.37-20.82,15-26.75-10.29,6.73-16,7.29-27.72,10.85-22.72,6.86-40,2.81-63.16-.4,35.11,1,65.33-3.86,99-20.2l1.11-.59c14.84-8.51,11.36-14.86,11.8-19.38l-1.11.59c-9.41,5.32-9.38,5.3-21.73,9a87.68,87.68,0,0,1-16.47,3,655.67,655.67,0,0,0-68.74,8c23.06-13.29,54-7.72,79.61-15.28,13.48-4,18.88-6.12,32.75-11.55l1.1-.59c21.3-16.05,14.24-27.71,16.62-31.6a1.19,1.19,0,0,1,.19-.2c4.09-3.3,4.29-2.59,7.38-5.85-26.67,8.57-39.1,25.17-65.16,35.41-18.83,7.4-52.37,11.53-70.81,13.72,29.45-9.22,61.69-16.57,89-31.79,10.78-6,20.78-13.38,31.79-18.94,10-5.08,13.43-6.85,23.89-10.26a6,6,0,0,0,1-.42l.62-.34c9.21-13.91,4.27-22.39,5.93-26.25a.83.83,0,0,1,.21-.28c6.49-6.15,10-9.57,12.9-14.9-40.69,16.85-69.66,47.71-109.51,66.48-19,9-39.82,14.83-56.73,27.35l.11-.16c19.55-22.95,75.32-44.08,102-65.85,13.2-10.79,28-19.6,42.28-28.91,18.45-12,9.39-5.3,27.58-16.45,2.14-3.42,1-6.94.68-9.3a5.16,5.16,0,0,1,1.53-4.34,41.13,41.13,0,0,0,4-4.46l-.19.11c-13.46,6.71-24.63,17.13-36.49,26.38-41.13,32.1-107.74,61.54-146.12,92.86l-.47.07c5.3-8.31,13.52-14.27,21.54-20l58.82-42.14c5-3.55,9.93-7.11,15.19-10.21,4.76-2.8,9.73-5.22,14.58-7.85,5.48-3,10.8-6.22,16.07-9.55a583.64,583.64,0,0,0,69.35-51.41c.46-.4.91-.83,1.33-1.27l.87-.92c6.56-16.47,1-25.81,1-25.81-20.34,14.57-26.58,20-47.78,35.5-49.56,36.17-96.7,73-143.4,112.73l51.72-47.65c6-5.53,12-11.06,18.06-16.52,43.09-38.75,74.18-62.85,121-96.94l2.09-1.77a12.65,12.65,0,0,0,1.33-1.31c9.88-11.35,11.81-15.15,11.07-20.3l-.81-8.94c-28.08,28.95-42.65,37.92-74.48,62.71-7.56,5.88-15.21,11.64-22.62,17.7-26.58,21.75-50.37,46.75-73,72.62-14.18,16.25-25.68,19.83-37.82,33.15l-.31.2L863.46,308.51c5.51-5.78,11-11.58,17.33-16.49,5-3.9,10.42-7.19,15.75-10.62,31.94-20.52,48-36.95,74.88-63.39a3.38,3.38,0,0,0,.91-1.64l.28-1.3c1-3.39,4.59-6,5.42-6.88,9.58-9.93,5.33-13.55,4.17-19.13a18.81,18.81,0,0,1,.1-9c-37.68,40.92-67.49,73.64-110.92,108.4-6.2,5-12.52,9.81-18.48,15.07-11.47,10.14-21.51,21.77-31.51,33.37-14.48,16.79-32.15,35.7-48.81,53.95,37.84-44.41,72.66-91.7,117.18-129.26,13.46-11.35,27.73-21.74,40.81-33.54,22-19.88,40.35-43.49,57.07-68l2.42-3.75c7-12,2.21-29.79,1.89-33.12l-.65-3.35c-85.52,87.42-155.74,181.37-236,271.77,37-44.1,65.45-93,105.2-138.2,9.42-10.72,19.74-20.62,29.64-30.91,28.81-30,55.43-61.93,81.52-94.29,8.79-10.9,15-14.4,20.83-26.33l-1.12,0c-2.24.06-6.66,2.42-6.66,2.42-45.19,28.14-216.85,247-216.85,247l-29.32,34.43-60.88,68.93a398.15,398.15,0,0,0-24.84,34.87c-17.5-41.7-34.25-56.66-34.25-56.66C595.87,415.7,575.13,410.7,560,410c-23-1.39-59,19.48-59,19.48a169.23,169.23,0,0,0-17.77,13.41l-34.9,29.2c-10.14,8.65-23.25,13.65-23.25,13.65.67,8,14.6,7.46,14.6,7.46l17.59-1h.06c10.6-1.58,11.24,3.16,11.28,3.77a.53.53,0,0,1,0,.12c-.46,7.41-9.07,7.39-9.07,7.39l-14.32-.17c9,5.44,6.61,15.36,6.61,15.36,9.66,1.58,32.23,35.8,32.23,35.8,3.16,5.81,25.39,38.9,36.69,55.65a75.58,75.58,0,0,1,9.88,21L550,705.8c26.24,85.78,57.33,137.06,57.33,137.06,22.31,41.11,63.57,73.78,84.25,77.81l.06.13c3,.5,6,.83,8.89,1-22.1,22-36.4,50.46-50.3,78.38l-24,48.21c-1.8,3.62-3.64,7.79-2.15,11.55s10.64,1.77,14.07-.32c6.17-3.75,18.85-11.55,22.41-13.39-13.3,15.55-34.12,52.56-29.79,72.56a4.59,4.59,0,0,0,1.44,2.89c1.26.92,3,.4,4.45-.2,4-1.7,22.28-19.3,25.88-21.79-3.87,7.56-18.87,32.2-16,40.2,12.56-5,36.48-26.56,45.58-36.56-2.42,7.8-15.25,29.9-13.4,37.85.49,2.09,1.3,4.37,3.2,5.35,2.26,1.16,5,0,7.21-1.23,18-9.93,37.25-35,47.23-53-1.39,12.47-6.65,36-.06,46.62.93,1.51,2.17,3,3.91,3.37a6.63,6.63,0,0,0,4.27-1.1c11-6,19.63-27.2,26.53-37.68-4.92,11-.09,32.11,7.75,42.35,11.75-10.15,23.78-20.65,30.91-34.44,4.57-8.86,6.21-21,8.3-30.77,3.27,4.93,4,13.58,5.15,19.38s2.21,31.38,8.1,32c6.49.65,13.86-25.37,15.22-31.75s5.63-23.62,8.41-29.51c1.67,16.54-10.92,42.07,2.63,49.88,9.33-26.13,27.51-104.07,23.63-131.28l-.06.16c4.85-84.84-56-225-66.64-248.74-.81-3-1.51-5.18-2-6.44a.76.76,0,0,1,1-1c19.49,6.13,28.58-12,29.92-15a.6.6,0,0,1,.6-.35c16.14,1.28,23.94-3.53,29.37-8.87-12.27-14.29-12.35-14.71-24.61-29-.94-1.09-10.94-15-16.28-21.24,17.88,15.8,31.07,26.56,48.8,41.82a19.84,19.84,0,0,0,4.7.37c19.72-.91,25.35-10.41,28.29-16.59-14.35-.85-16.8-.92-29.91-6.81-8.52-3.82-16-9.6-23.09-15.69A261.74,261.74,0,0,1,840,641.65c6.41,5.14,19.36,13,27.28,18.8a97.71,97.71,0,0,0,23.09,11.79c18.36,5.86,10,5.56,28.35,6.34l3.88.07h.27c20.84-.63,26-11.76,28.87-17.69-13.56.92-19.31-1.6-32.58-4.53-25.59-5.66-40-18.88-60.62-34.51,33.26,20,65,31.58,106.31,34l1.38,0c18.89-.18,19-8.17,21.84-12.3l-1.39,0c-11.94,0-11.9,0-25.81-3a96.29,96.29,0,0,1-17.47-6,722.1,722.1,0,0,0-70.52-29.47c29.39-.35,56.22,21.75,84.95,28.29,15.13,3.44,21.5,4.3,37.79,6.57l1.38,0c29.19-4,28.69-19,33.08-21.47a1,1,0,0,1,.29-.09c5.73-1,5.53-.18,10.28-1.65-30.33-6.15-51.28,3.12-81.92-1.09-22.13-3-56.68-17.19-75.62-25,33.36,7,68.38,17.37,102.88,17.44,13.63,0,27.24-1.66,40.86-1.08,12.41.54,16.64.67,28.56,3a7.88,7.88,0,0,0,1.19.13h.79c16.38-8.43,16.2-19.27,19.89-22.09a1.11,1.11,0,0,1,.35-.16c9.58-2.41,14.78-3.83,20.49-7.38-48.31-5.75-92.9,8.33-141.42,4.88-23.19-1.65-46.38-7.22-69.44-4.3l.2-.09c31.23-11.56,96.37-1.77,133.81-8.35,18.54-3.26,37.56-3.76,56.34-5,24.26-1.61,11.91,0,35.45-1,3.92-2.14,4.68-6.17,5.69-8.59a5.71,5.71,0,0,1,3.82-3.36,45.23,45.23,0,0,0,6.28-2.13h-.25c-16.59-.82-33,3.19-49.41,5.7-57,8.7-137.05,1.07-190.94,10.51l-.49-.19c9.6-5.14,20.73-6.44,31.56-7.64l79.44-8.81c6.7-.75,13.41-1.49,20.15-1.63,6.09-.14,12.19.23,18.28.31,6.89.1,13.77-.16,20.65-.52a644.47,644.47,0,0,0,94.58-12.06,19.12,19.12,0,0,0,2-.5l1.33-.42c15.22-12.32,14.88-24.34,14.88-24.34-27.47,3-36.43,4.93-65.22,8.39-67.28,8.07-132.6,18.09-199,31.12l75.57-18c8.77-2.08,17.53-4.16,26.33-6.14,62.44-14.06,105.42-20.47,169-28l3-.57a13.47,13.47,0,0,0,2-.54c15.65-5.6,19.56-8.22,21.64-13.58l4-9.05c-42.7,12.72-61.58,13.49-105.63,20.17-10.46,1.58-21,3-31.36,4.83-37.36,6.6-73.78,17.83-109.51,30.55-22.44,8-35.46,5.23-54.34,11.5l-.41,0,169.47-52.17c8.42-2.59,16.88-5.19,25.59-6.52,6.92-1.06,13.93-1.3,20.91-1.72,41.87-2.51,66.2-9.67,106.39-20.61a3.68,3.68,0,0,0,1.76-1.09l1-1.1c2.82-2.71,7.66-3.32,8.93-3.7,14.6-4.39,12.45-10.18,14.35-16.18a20.83,20.83,0,0,1,5-8.62c-58.41,19.05-104.81,34.47-165.43,44.5-8.66,1.43-17.36,2.68-25.94,4.53-16.53,3.57-32.49,9.36-48.39,15.12-23,8.35-50.26,17-76.17,25.61,60.45-22.34,119.54-49.09,182.72-61.22,19.11-3.66,38.47-6,57.44-10.27,32-7.24,62.37-20.09,91.72-34.66l4.35-2.31c13.17-7.76,18.22-27.5,19.72-30.88l1.18-3.58c-129.61,38-248,90.59-374.19,134.32C986.41,490.78,1040.27,459.05,1103,437Z"/></g><circle class="cls-3" cx="533.62" cy="458.83" r="5.25"/><path d="M529.66,449.07a17.5,17.5,0,1,0,21.92,11.51A17.5,17.5,0,0,0,529.66,449.07Zm8.38,9.6a4.82,4.82,0,1,1-4.74-4.88A4.81,4.81,0,0,1,538,458.67Z"/></g><g id="_00_Pico" data-name="00_Pico"><path class="cls-4" d="M425.13,485.73s.67,8,14.24,7.48l18-1s10.29-2.29,11.28,3.82c0,0,.67,8-12.33,7.5l-10,.36s7.67,4,5.51,14.78c0,0-22.64-16.79-89.9-3.18,0,0-83,10.24-108,18,0,0-27.26,6.65-41.46,11.07,0,0-18.65,4.89-25.16-1.33,0,0-1.05-3.34,21-12C208.31,531.21,319.13,498.55,425.13,485.73Z"/><path class="cls-4" d="M337.87,1206.86v80.79q0,16.2,7.12,24.3t20.59,8.1q13.26,0,20.39-8.1t7.12-24.3v-80.79h27.32v80.79q0,19.13-7.12,32.3a45.88,45.88,0,0,1-19.71,19.61A61.91,61.91,0,0,1,365,1346q-24.78,0-39.61-14.83t-14.83-43.52v-80.79Z"/><path class="cls-4" d="M488.13,1240.91a42.56,42.56,0,0,1,22.24-6v29.47h-8q-30.24,0-30.24,28.1v52.1H444.61V1236.52h27.52v20.69A45.23,45.23,0,0,1,488.13,1240.91Z"/><path class="cls-4" d="M614.77,1241.79A44.86,44.86,0,0,1,631.85,1261q6.15,12.6,6.15,29.57t-6.15,29.56a44.89,44.89,0,0,1-17.08,19.23,46.44,46.44,0,0,1-24.58,6.63q-13.66,0-23.32-6.54A35.73,35.73,0,0,1,553.11,1322v22.63H525.59v-144.4h27.52V1259a35.2,35.2,0,0,1,13.76-17.37q9.66-6.45,23.32-6.44A46.44,46.44,0,0,1,614.77,1241.79ZM561,1267.65q-8.1,8.49-8.1,22.93,0,14.25,8.1,22.73t20.59,8.49q12.89,0,20.69-8.29t7.8-22.93q0-14.64-7.8-23t-20.69-8.39Q569.11,1259.16,561,1267.65Z"/><path class="cls-4" d="M723.27,1241.6A35,35,0,0,1,737.13,1259v-22.45h27.32v108.11H737.13V1322a35.53,35.53,0,0,1-13.86,17.46q-9.75,6.54-23.41,6.54a46.45,46.45,0,0,1-24.59-6.63,44.89,44.89,0,0,1-17.08-19.23q-6.13-12.59-6.14-29.56t6.14-29.57a44.86,44.86,0,0,1,17.08-19.22,46.45,46.45,0,0,1,24.59-6.63Q713.51,1235.16,723.27,1241.6Zm-35.51,26q-7.82,8.4-7.81,23t7.81,22.93q7.8,8.29,20.68,8.29,12.49,0,20.59-8.49t8.1-22.73q0-14.44-8.1-22.93t-20.59-8.49Q695.57,1259.16,687.76,1267.55Zm50.15-60.3L693,1228.33v-18.74l44.88-23.41Z"/><path class="cls-4" d="M883.68,1247.26q11.13,12.29,11.12,34.54v62.83H867.48v-59.71q0-12.89-6.63-20t-18.15-7.13q-11.7,0-18.73,7.62t-7,21.85v57.37H789.43V1236.52h27.51v21.66a34.46,34.46,0,0,1,14.15-17.07,42,42,0,0,1,22.73-6.15Q872.55,1235,883.68,1247.26Z"/><path class="cls-4" d="M920.56,1194.67q4.68-4.2,12.29-4.2t12.3,4.2a13.86,13.86,0,0,1,4.68,10.83,13.64,13.64,0,0,1-4.68,10.63q-4.68,4.2-12.3,4.2t-12.29-4.2a13.64,13.64,0,0,1-4.68-10.63A13.86,13.86,0,0,1,920.56,1194.67Zm26,41.85v108.11H919V1236.52Z"/><path class="cls-4" d="M1034.72,1344.63,999,1297.41v47.22H971.49v-144.4H999v81.18l35.51-44.89h32.59l-45.47,53.86,46.64,54.25Z"/><path class="cls-4" d="M1147.32,1241.6a35,35,0,0,1,13.85,17.37v-22.45h27.32v108.11h-27.32V1322a35.57,35.57,0,0,1-13.85,17.46q-9.77,6.54-23.42,6.54a46.48,46.48,0,0,1-24.59-6.63,44.8,44.8,0,0,1-17.07-19.23q-6.15-12.59-6.15-29.56t6.15-29.57a44.77,44.77,0,0,1,17.07-19.22,46.48,46.48,0,0,1,24.59-6.63Q1137.55,1235.16,1147.32,1241.6Zm-35.52,26q-7.8,8.4-7.81,23t7.81,22.93q7.8,8.29,20.69,8.29,12.48,0,20.58-8.49t8.1-22.73q0-14.44-8.1-22.93t-20.58-8.49Q1119.61,1259.16,1111.8,1267.55Z"/></g></svg>