<svg xmlns="http://www.w3.org/2000/svg" viewBox="0 0 1500 1500"><defs><style>.cls-1{fill:#00a08d;}.cls-2{fill:#fff;}</style></defs><g id="_00_Cuerpos" data-name="00_Cuerpos"><g id="Wing1"><path class="cls-1" d="M521,486.9l-.12.05"/><path class="cls-1" d="M539.34,480.78l-.27.06"/></g></g><g id="_00_Ojos" data-name="00_Ojos"><g id="_00_Body" data-name="00_Body"><path class="cls-2" d="M1182.58,509.78c17-6,34.47-10.5,51.71-15.72,50.21-15.18,99.26-34,147.94-53.47,16.42-6.58,25.4-6.61,39.19-16.14l-1.25-.65c-2.5-1.32-8.83-1.44-8.83-1.44-67.11,3.08-391.16,138-391.16,138l-53.54,19.8L857.07,618.43q-10.77,4.41-20.32,8.82c-2,.25-4.16.48-6.76.71-9.62.87-19.3-.55-28.77-2.47a271.64,271.64,0,0,1-29.44-7.72c8.39,1.39,24.06,2,34.13,3.16a101.11,101.11,0,0,0,26.8-1.06c19.53-4,11.85,0,28.79-8.62l3.54-1.89.24-.14c18.49-11.11,17.56-23.78,17.1-30.56-11.77,7.69-18.23,8.33-31.68,12.39-26,7.85-45.67,3.21-72.16-.45,40.1,1.17,74.64-4.41,113.14-23.09l1.26-.67c17-9.72,13-17,13.48-22.15l-1.26.68c-10.76,6.08-10.72,6.06-24.83,10.32a99.49,99.49,0,0,1-18.82,3.39A748,748,0,0,0,783,568.17c26.35-15.19,61.74-8.83,91-17.46,15.41-4.55,21.59-7,37.43-13.2l1.26-.67c24.34-18.35,16.27-31.66,19-36.11a.77.77,0,0,1,.21-.23c4.68-3.76,4.91-3,8.44-6.69-30.47,9.8-44.68,28.77-74.46,40.47-21.51,8.46-59.84,13.17-80.9,15.67,33.65-10.53,70.48-18.93,101.65-36.32,12.31-6.87,23.74-15.28,36.32-21.64,11.47-5.8,15.34-7.83,27.3-11.72a6.75,6.75,0,0,0,1.14-.49l.72-.38c10.52-15.9,4.87-25.59,6.77-30a.88.88,0,0,1,.24-.33c7.42-7,11.39-10.93,14.74-17-46.49,19.26-79.59,54.53-125.13,76-21.75,10.25-45.49,17-64.82,31.26l.13-.18c22.33-26.23,86.06-50.36,116.5-75.24,15.09-12.33,32-22.4,48.31-33,21.08-13.73,10.73-6.06,31.51-18.8,2.45-3.91,1.1-7.93.78-10.63a5.92,5.92,0,0,1,1.75-5,47.88,47.88,0,0,0,4.59-5.1l-.22.13C971.78,399.12,959,411,945.47,421.6c-47,36.69-123.11,70.33-167,106.11l-.54.08c6.06-9.5,15.45-16.3,24.61-22.87l67.21-48.15c5.67-4.06,11.35-8.12,17.36-11.66,5.43-3.21,11.11-6,16.66-9,6.26-3.4,12.34-7.11,18.36-10.92a667.93,667.93,0,0,0,79.24-58.74,21,21,0,0,0,1.53-1.46l1-1c7.5-18.82,1.11-29.49,1.11-29.49-23.24,16.65-30.38,22.88-54.6,40.56C893.81,416.38,840,458.48,786.58,503.86l59.1-54.45q10.27-9.48,20.64-18.87c49.23-44.28,84.77-71.81,138.31-110.77l2.39-2a15.27,15.27,0,0,0,1.52-1.49c11.29-13,13.49-17.32,12.65-23.2l-.92-10.22c-32.09,33.08-48.74,43.33-85.11,71.65-8.63,6.72-17.38,13.3-25.84,20.23-30.37,24.85-57.55,53.41-83.36,83-16.2,18.56-29.34,22.66-43.21,37.87l-.35.23L908.91,363c6.29-6.6,12.6-13.23,19.79-18.84,5.71-4.45,11.91-8.22,18-12.13,36.5-23.45,54.83-42.22,85.56-72.43a3.81,3.81,0,0,0,1-1.88l.33-1.49c1.17-3.87,5.24-6.86,6.19-7.85,11-11.35,6.08-15.49,4.76-21.86a21.62,21.62,0,0,1,.12-10.3C1001.64,263,967.58,300.34,918,340.06c-7.09,5.68-14.31,11.21-21.12,17.22-13.11,11.59-24.58,24.88-36,38.13-16.55,19.19-36.73,40.8-55.77,61.65,43.25-50.74,83-104.78,133.9-147.7,15.38-13,31.69-24.84,46.63-38.33,25.15-22.7,46.11-49.69,65.21-77.68l2.76-4.29c8-13.66,2.52-34,2.16-37.84l-.74-3.82c-97.71,99.88-178,207.23-269.66,310.53,42.25-50.39,74.79-106.28,120.2-157.92,10.77-12.25,22.56-23.55,33.87-35.31,32.93-34.22,63.34-70.77,93.14-107.74,10-12.46,17.14-16.46,23.81-30.09l-1.28,0c-2.56.07-7.61,2.77-7.61,2.77-51.63,32.16-247.78,282.19-247.78,282.19L766.16,451.2,696.6,530a451.6,451.6,0,0,0-28.37,39.84c-20-47.65-39.15-64.74-39.15-64.74-25.93-19.59-49.63-25.31-66.88-26.12-26.25-1.59-67.4,22.26-67.4,22.26a192.43,192.43,0,0,0-20.3,15.32l-39.88,33.36c-11.59,9.89-26.57,15.6-26.57,15.6.77,9.19,16.69,8.53,16.69,8.53l20.09-1.15h.08c12.1-1.81,12.83,3.6,12.88,4.3v.13c-.54,8.47-10.38,8.45-10.38,8.45l-16.36-.19c10.32,6.22,7.56,17.55,7.56,17.55,11,1.8,36.82,40.9,36.82,40.9,3.62,6.64,29,44.46,41.93,63.6a86.37,86.37,0,0,1,11.29,24l22.08,85.33c30,98,65.5,156.61,65.5,156.61,25.5,47,72.63,84.31,96.27,88.91l.07.15c3.44.57,6.82,1,10.15,1.19-25.25,25.13-41.58,57.65-57.47,89.55l-27.44,55.1c-2,4.13-4.15,8.9-2.45,13.19s12.16,2,16.08-.36c7-4.29,21.53-13.2,25.61-15.3-15.2,17.76-39,60-34,82.91a5.21,5.21,0,0,0,1.65,3.3c1.43,1,3.44.45,5.08-.24,4.61-1.93,25.46-22,29.57-24.88-4.42,8.63-21.56,36.78-18.32,45.92,14.35-5.73,41.68-30.34,52.08-41.77-2.77,8.92-17.43,34.16-15.31,43.26.56,2.38,1.48,5,3.66,6.1,2.58,1.33,5.69,0,8.23-1.4,20.6-11.35,42.57-40,54-60.55-1.59,14.25-7.59,41.07-.06,53.27,1.06,1.73,2.48,3.48,4.47,3.85a7.66,7.66,0,0,0,4.88-1.26c12.58-6.86,22.43-31.08,30.31-43-5.62,12.57-.1,36.69,8.86,48.39,13.42-11.6,27.17-23.6,35.31-39.36,5.23-10.12,7.1-24,9.49-35.15,3.74,5.63,4.52,15.51,5.88,22.14s2.53,35.86,9.26,36.54c7.41.75,15.83-29,17.38-36.27s6.44-27,9.62-33.73c1.91,18.9-12.48,48.07,3,57,10.67-29.86,31.44-118.91,27-150l-.07.18c5.54-97-64-257.1-76.14-284.22-.92-3.41-1.72-5.92-2.23-7.36a.87.87,0,0,1,1.09-1.1c22.26,7,32.66-13.75,34.18-17.12a.69.69,0,0,1,.69-.39c18.44,1.46,27.36-4,33.56-10.14-14-16.33-14.11-16.8-28.12-33.14-1.08-1.25-12.49-17.17-18.61-24.26,20.44,18,35.51,30.34,55.77,47.78a23,23,0,0,0,5.37.42c22.53-1,29-11.89,32.33-19-16.4-1-19.2-1.05-34.18-7.77-9.74-4.37-18.31-11-26.39-17.94a296,296,0,0,1-24.18-23.34c7.32,5.88,22.12,14.89,31.16,21.48a111.21,111.21,0,0,0,26.39,13.47c21,6.71,11.45,6.36,32.4,7.25l4.43.08h.31c23.81-.72,29.76-13.43,33-20.21-15.49,1-22.06-1.83-37.22-5.18-29.24-6.46-45.72-21.57-69.27-39.42,38,22.79,74.29,36.08,121.47,38.89l1.58,0c21.59-.2,21.68-9.34,25-14l-1.58,0c-13.64,0-13.6,0-29.5-3.47a110.53,110.53,0,0,1-19.95-6.91,825,825,0,0,0-80.59-33.68c33.59-.39,64.25,24.86,97.07,32.33,17.29,3.93,24.57,4.92,43.18,7.5l1.58,0c33.36-4.52,32.78-21.7,37.8-24.52a1.28,1.28,0,0,1,.33-.11c6.54-1.1,6.32-.2,11.74-1.88-34.65-7-58.58,3.57-93.6-1.25-25.29-3.47-64.76-19.64-86.4-28.61,38.11,8,78.13,19.85,117.55,19.93,15.57,0,31.13-1.9,46.68-1.23,14.19.61,19,.76,32.64,3.46a7.76,7.76,0,0,0,1.36.15l.9,0c18.72-9.63,18.52-22,22.73-25.24a1,1,0,0,1,.4-.18c11-2.76,16.88-4.38,23.41-8.44-55.2-6.57-106.14,9.52-161.59,5.57-26.5-1.88-53-8.24-79.34-4.91l.22-.1c35.69-13.2,110.13-2,152.9-9.54,21.18-3.73,42.91-4.3,64.38-5.72,27.72-1.84,13.6,0,40.51-1.09,4.48-2.44,5.35-7.05,6.49-9.82a6.56,6.56,0,0,1,4.37-3.84,52.76,52.76,0,0,0,7.17-2.42h-.28c-19-.93-37.69,3.65-56.45,6.51-65.09,10-156.6,1.23-218.18,12l-.57-.22c11-5.88,23.7-7.36,36.07-8.73l90.77-10.07c7.65-.85,15.32-1.7,23-1.87,7-.14,13.93.27,20.9.37,7.86.11,15.73-.18,23.58-.6a737.45,737.45,0,0,0,108.08-13.78,22.71,22.71,0,0,0,2.26-.58l1.52-.47c17.38-14.07,17-27.81,17-27.81-31.38,3.49-41.62,5.63-74.52,9.58-76.88,9.22-151.51,20.68-227.44,35.56l86.34-20.53c10-2.38,20-4.76,30.09-7,71.35-16.06,120.46-23.39,193.09-32l3.4-.65a16.08,16.08,0,0,0,2.26-.62c17.89-6.4,22.36-9.39,24.73-15.51l4.63-10.35c-48.79,14.54-70.37,15.41-120.7,23-12,1.81-23.93,3.42-35.83,5.53-42.69,7.53-84.3,20.36-125.14,34.9-25.64,9.13-40.51,6-62.09,13.14l-.46,0,193.63-59.6c9.63-3,19.3-5.94,29.25-7.46,7.91-1.21,15.92-1.49,23.9-2,47.83-2.87,75.63-11.06,121.56-23.56a4.16,4.16,0,0,0,2-1.25l1.12-1.25c3.23-3.1,8.76-3.79,10.21-4.22,16.68-5,14.23-11.64,16.4-18.49a23.86,23.86,0,0,1,5.68-9.86c-66.75,21.78-119.76,39.39-189,50.85-9.9,1.64-19.84,3.07-29.65,5.18-18.89,4.08-37.12,10.69-55.29,17.28-26.31,9.54-57.43,19.46-87,29.26,69.08-25.52,136.6-56.09,208.79-69.95,21.83-4.19,44-6.81,65.63-11.73,36.51-8.28,71.27-23,104.8-39.61l5-2.64c15-8.87,20.81-31.42,22.53-35.29l1.34-4.08C1260.92,486.93,1125.61,547,981.46,597,1049.39,571.25,1110.93,535,1182.58,509.78Z"/></g><circle class="cls-2" cx="532.02" cy="534.75" r="6"/><path d="M527.5,523.59a20,20,0,1,0,25,13.15A20,20,0,0,0,527.5,523.59Zm9.56,11a5.5,5.5,0,1,1-5.41-5.58A5.49,5.49,0,0,1,537.06,534.56Z"/></g><g id="_00_Pico" data-name="00_Pico"><path class="cls-2" d="M408.05,565.48s.77,9.19,16.28,8.55l20.58-1.17s11.75-2.61,12.88,4.37c0,0,.76,9.19-14.09,8.57l-11.39.41s8.76,4.6,6.3,16.89c0,0-25.87-19.18-102.72-3.64,0,0-94.81,11.7-123.45,20.62,0,0-31.15,7.6-47.38,12.65,0,0-21.31,5.58-28.75-1.52,0,0-1.19-3.82,24-13.76C160.3,617.45,286.93,580.14,408.05,565.48Z"/></g></svg>