<svg width="137" height="137" viewBox="0 0 137 137" fill="none" xmlns="http://www.w3.org/2000/svg">
<circle cx="68.4526" cy="68.4526" r="68.4526" fill="white"/>
<path d="M45.2903 79.3792C45.2903 77.8531 45.8965 76.3895 46.9756 75.3104C48.0548 74.2312 49.5184 73.625 51.0444 73.625C52.5705 73.625 54.0341 74.2312 55.1133 75.3104C56.1924 76.3895 56.7986 77.8531 56.7986 79.3792C56.7986 80.9053 56.1924 82.3689 55.1133 83.448C54.0341 84.5271 52.5705 85.1333 51.0444 85.1333C49.5184 85.1333 48.0548 84.5271 46.9756 83.448C45.8965 82.3689 45.2903 80.9053 45.2903 79.3792ZM85.5695 73.625C84.0434 73.625 82.5798 74.2312 81.5006 75.3104C80.4215 76.3895 79.8153 77.8531 79.8153 79.3792C79.8153 80.9053 80.4215 82.3689 81.5006 83.448C82.5798 84.5271 84.0434 85.1333 85.5695 85.1333C87.0956 85.1333 88.5592 84.5271 89.6383 83.448C90.7174 82.3689 91.3236 80.9053 91.3236 79.3792C91.3236 77.8531 90.7174 76.3895 89.6383 75.3104C88.5592 74.2312 87.0956 73.625 85.5695 73.625Z" fill="#FF79B0"/>
<path d="M48.1675 25C44.2379 24.999 40.4255 26.3387 37.3604 28.7978C34.2953 31.2569 32.161 34.6882 31.3101 38.5246H30.905C29.0737 38.5246 27.3174 39.2521 26.0224 40.547C24.7275 41.842 24 43.5983 24 45.4296V48.8821C24 50.7879 25.5467 52.3346 27.4525 52.3346H30.905V89.4467C30.905 92.7841 32.4839 95.7532 34.9329 97.6452V104.408C34.9329 106.239 35.6604 107.995 36.9553 109.29C38.2503 110.585 40.0066 111.312 41.8379 111.312C43.6692 111.312 45.4256 110.585 46.7205 109.29C48.0154 107.995 48.7429 106.239 48.7429 104.408V99.8042H87.8713V104.408C87.8713 106.239 88.5987 107.995 89.8937 109.29C91.1886 110.585 92.9449 111.312 94.7763 111.312C96.6076 111.312 98.3639 110.585 99.6588 109.29C100.954 107.995 101.681 106.239 101.681 104.408V97.6452C102.935 96.6775 103.95 95.4352 104.648 94.014C105.346 92.5927 105.709 91.0302 105.709 89.4467V52.3346H109.162C110.077 52.3346 110.955 51.9709 111.603 51.3234C112.25 50.6759 112.614 49.7978 112.614 48.8821V45.4296C112.614 43.5983 111.887 41.842 110.592 40.547C109.297 39.2521 107.54 38.5246 105.709 38.5246H105.304C104.453 34.6882 102.319 31.2569 99.2537 28.7978C96.1887 26.3387 92.3763 24.999 88.4467 25H48.1675ZM98.8042 42.2625V58.9496H37.81V42.2625C37.81 39.5155 38.9012 36.8811 40.8436 34.9386C42.7861 32.9962 45.4205 31.905 48.1675 31.905H88.4467C91.1936 31.905 93.8281 32.9962 95.7705 34.9386C97.7129 36.8811 98.8042 39.5155 98.8042 42.2625ZM95.3517 92.8992H41.2625C40.3468 92.8992 39.4687 92.5354 38.8212 91.888C38.1737 91.2405 37.81 90.3623 37.81 89.4467V65.8546H98.8042V89.4467C98.8042 90.3623 98.4404 91.2405 97.793 91.888C97.1455 92.5354 96.2673 92.8992 95.3517 92.8992Z" fill="#FF79B0"/>
</svg>
