<svg width="91" height="114" viewBox="0 0 91 114" fill="none" xmlns="http://www.w3.org/2000/svg">
<path fill-rule="evenodd" clip-rule="evenodd" d="M75.4211 45.5385C78.9211 50.5641 80.6711 57.4744 80.6711 63.7564C80.6711 70.0385 78.9211 76.3205 75.4211 81.3462L82.4211 87C87.0878 80.0897 89.4211 71.9231 89.4211 63.1282C89.4211 54.3333 86.5045 45.5385 81.8378 38L77.7545 41.7692L75.4211 45.5385Z" fill="white"/>
<path fill-rule="evenodd" clip-rule="evenodd" d="M89.1823 91.6957L63.1673 71.8696C65.0255 69.3913 66.2643 66.2935 66.2643 63.1956C66.2643 60.0978 65.6449 57 63.7867 54.5217L76.1748 43.3696L89.1823 30.9783C89.8017 30.3587 89.8017 28.5 89.1823 27.8804L87.9435 26.6413C78.6524 17.3478 66.2643 11.7717 53.2567 11.1522V3.71739C53.2567 3.09783 53.2567 2.47826 53.2567 2.47826C53.2567 1.8587 52.6373 1.8587 52.6373 1.23913C52.6373 0.619567 52.0179 0.619565 51.3985 0.619565C50.7791 0.619565 50.7791 0 50.1597 0C49.5403 0 48.9209 -6.00096e-07 48.9209 0.619565C48.3015 0.619565 48.3015 1.23913 47.6821 1.23913C47.0627 1.8587 47.0627 2.47826 46.4433 2.47826C46.4433 3.09783 46.4433 3.71739 46.4433 3.71739V11.1522C43.3462 11.7717 40.2492 11.7717 37.1522 13.0109V3.71739C37.1522 3.09783 37.1522 2.47826 37.1522 2.47826C37.1522 1.8587 36.5328 1.8587 36.5328 1.23913C35.9134 0.619567 35.9134 0.619565 35.294 0.619565C34.6745 0.619565 34.6745 0 34.0551 0C33.4357 0 32.8163 -6.00096e-07 32.8163 0.619565C32.1969 0.619565 32.1969 1.23913 31.5775 1.23913C30.9581 1.8587 30.9581 2.47826 30.9581 2.47826C30.9581 3.09783 30.9581 3.71739 30.9581 3.71739V15.4891C20.4282 20.4457 11.7565 28.5 6.18184 39.0326C0.607181 49.5652 -0.631634 61.337 1.22659 73.1087C3.70421 84.8804 9.89828 94.7935 18.57 102.228C27.2417 109.663 39.0104 114 50.7791 114H88.5629C89.8017 114 90.4211 112.761 90.4211 112.141V92.9348C90.4211 92.9348 89.8017 92.3152 89.1823 91.6957ZM51.3985 105.326C42.1074 105.326 32.8163 102.228 26.0029 96.6522C18.57 91.0761 13.6147 83.0217 11.1371 73.7283C8.65947 64.4348 9.27887 55.1413 12.9953 46.4674C16.7118 37.7935 22.9058 30.9783 30.9581 26.0217V39.6522C30.9581 40.2717 30.9581 40.8913 30.9581 40.8913C30.9581 41.5109 31.5775 41.5109 31.5775 42.1304C32.1969 42.75 32.1969 42.75 32.8163 42.75C33.4357 42.75 33.4357 43.3696 34.0551 43.3696C34.6745 43.3696 35.294 43.3696 35.294 42.75C35.9134 42.75 35.9134 42.1304 36.5328 42.1304C37.1522 41.5109 37.1522 41.5109 37.1522 40.8913C37.1522 40.2717 37.1522 39.6522 37.1522 39.6522V22.3043C42.1074 20.4457 46.4433 19.8261 51.3985 19.8261C60.6896 19.8261 69.3613 22.9239 76.7942 28.5C77.4136 29.1196 77.4136 29.7391 76.7942 30.3587L56.9732 48.9457C55.115 48.3261 53.2567 47.7065 51.3985 47.7065C49.5403 47.7065 47.0627 48.3261 45.2045 48.9457C43.3462 49.5652 41.488 51.4239 40.2492 52.663C39.0104 54.5217 37.7716 56.3804 37.1522 58.2391C36.5328 60.0978 36.5328 62.5761 36.5328 64.4348C37.1522 66.913 37.7716 68.7717 39.0104 70.6304C40.2492 72.4891 41.488 73.7283 43.3462 74.9674C45.2045 76.2065 47.0627 76.8261 49.5403 77.4457C51.3985 78.0652 53.8761 77.4457 55.7344 76.8261L81.13 96.0326L81.7495 96.6522V103.467C81.7495 104.087 81.13 104.707 80.5106 104.707L51.3985 105.326ZM57.5926 63.1956C57.5926 64.4348 56.9732 65.6739 56.3538 66.2935C55.7344 67.5326 54.4956 68.1522 53.8761 68.7717C52.6373 69.3913 51.3985 69.3913 50.1597 69.3913C48.9209 69.3913 47.6821 68.7717 47.0627 67.5326C46.4433 66.913 45.8239 65.6739 45.2045 64.4348C45.2045 63.1957 45.2045 61.9565 45.8239 60.7174C46.4433 59.4783 47.0627 58.8587 48.3015 58.2391C49.5403 57.6196 50.1597 57 51.3985 57C53.2567 57 54.4956 57.6196 55.7344 58.8587C56.9732 59.4783 57.5926 61.337 57.5926 63.1956Z" fill="white"/>
</svg>
