<svg width="137" height="137" viewBox="0 0 137 137" fill="none" xmlns="http://www.w3.org/2000/svg">
<circle cx="68.4526" cy="68.4526" r="68.4526" fill="white"/>
<path d="M90.3001 42.8078C85.1853 34.1417 77.9238 26.9396 69.216 21.896L67.6668 21L66.1176 21.896C57.2616 27.0069 49.9079 34.36 44.7964 43.2157C39.6849 52.0713 36.9959 62.117 37 72.3419C37 73.0081 37.0116 73.6846 37.0342 74.3529C37.3421 83.4129 40.8069 91.0365 47.0541 96.3993C51.8347 100.503 57.9669 103.009 64.5738 103.606V114.293H70.7613V64.7928H64.5731V97.3793C54.1193 96.1683 43.7148 88.7835 43.2177 74.1425C43.1972 73.5441 43.1867 72.9383 43.1867 72.3419C43.2052 63.5131 45.4601 54.8328 49.7408 47.1111C54.0216 39.3894 60.1888 32.8781 67.6668 28.1847C75.1447 32.8782 81.3117 39.3896 85.5923 47.1112C89.873 54.8329 92.1277 63.5131 92.1461 72.3419C92.1461 72.9383 92.1357 73.5441 92.1152 74.1427C91.7176 85.8551 84.9788 92.9231 76.9473 95.9026V102.451C81.115 101.27 84.9798 99.2057 88.2795 96.3989C94.5267 91.0361 97.9915 83.4125 98.2994 74.3527C98.322 73.6844 98.3336 73.0079 98.3336 72.3417C98.3391 61.9566 95.5653 51.7593 90.3001 42.8078Z" fill="#FF79B0"/>
</svg>
