<svg width="137" height="137" viewBox="0 0 137 137" fill="none" xmlns="http://www.w3.org/2000/svg">
<circle cx="68.4526" cy="68.4526" r="68.4526" fill="white"/>
<path d="M85.5138 63.6763L57.8194 49.8249C57.0365 49.4331 56.1664 49.2481 55.2918 49.2874C54.4173 49.3267 53.5673 49.589 52.8226 50.0494C52.078 50.5098 51.4635 51.153 51.0375 51.9179C50.6116 52.6827 50.3883 53.5438 50.3889 54.4192V80.5821C50.3883 81.4576 50.6116 82.3187 51.0375 83.0835C51.4635 83.8483 52.078 84.4915 52.8226 84.9519C53.5673 85.4123 54.4173 85.6747 55.2918 85.714C56.1664 85.7533 57.0365 85.5682 57.8194 85.1765L85.5138 71.325C86.2234 70.9694 86.82 70.4233 87.237 69.7479C87.654 69.0725 87.8748 68.2944 87.8748 67.5007C87.8748 66.7069 87.654 65.9289 87.237 65.2535C86.82 64.5781 86.2234 64.032 85.5138 63.6763Z" stroke="#FF79B0" stroke-width="4" stroke-linecap="round" stroke-linejoin="round"/>
<path d="M67.5 106C88.763 106 106 88.763 106 67.5C106 46.237 88.763 29 67.5 29C46.237 29 29 46.237 29 67.5C29 88.763 46.237 106 67.5 106Z" stroke="#FF79B0" stroke-width="4"/>
</svg>
