<svg width="114" height="114" viewBox="0 0 114 114" fill="none" xmlns="http://www.w3.org/2000/svg">
<path d="M113.527 58.3308C113.415 59.9309 113.376 61.5411 113.181 63.1293C111.11 79.9949 103.267 93.5095 89.4992 103.406C79.2145 110.8 67.6066 114.251 54.9633 113.812C40.3429 113.308 27.7382 107.85 17.1687 97.7024C17.0715 97.6088 17.0738 97.2353 17.1687 97.1352C30.3514 83.8923 43.5465 70.6627 56.7541 57.4467C57.0664 57.1598 57.4703 56.994 57.8935 56.9793C76.4395 56.9563 94.9851 56.9496 113.531 56.9595L113.527 58.3308Z" fill="white"/>
<path d="M58.1385 0C59.6976 0.118784 61.26 0.188009 62.8137 0.356351C71.9118 1.34543 80.2909 4.35777 87.9511 9.39334C88.003 9.43251 88.0527 9.47453 88.1001 9.51922L83.2577 14.3658C82.2036 15.4206 81.1566 16.4826 80.0899 17.5241C80.0225 17.5679 79.9454 17.5944 79.8654 17.6014C79.7856 17.6084 79.7051 17.5956 79.631 17.5643C71.9191 13.1145 63.618 11.0679 54.7276 11.4245C34.8365 12.2284 17.496 26.3573 12.7266 45.7318C9.7744 57.736 11.4168 69.1401 17.496 79.9036C17.554 80.006 17.5572 80.2316 17.4874 80.2969C14.8484 82.9631 12.2003 85.6226 9.54302 88.2752C9.51715 88.3011 9.48499 88.3223 9.4246 88.3711C9.1744 87.9826 8.92262 87.6066 8.68577 87.2227C2.12966 76.5935 -0.764458 65.0408 0.172015 52.5709C2.12417 26.6485 21.3619 5.41135 46.9605 0.901497C49.5486 0.44603 52.1957 0.330393 54.8145 0.0574241L55.3495 0H58.1385Z" fill="white"/>
<path d="M86.9111 34.365C86.9155 31.9978 87.738 29.7052 89.238 27.8774C90.7383 26.0498 92.8237 24.8 95.1392 24.3409C97.4546 23.8818 99.8574 24.2415 101.938 25.3593C104.019 26.4769 105.649 28.2831 106.551 30.4706C107.454 32.6581 107.572 35.0918 106.887 37.357C106.202 39.6226 104.755 41.5796 102.793 42.8954C100.831 44.2115 98.4748 44.8047 96.1256 44.5742C93.7764 44.344 91.5794 43.3042 89.9087 41.6321C88.9572 40.678 88.2026 39.545 87.6883 38.298C87.1738 37.0509 86.9098 35.7146 86.9111 34.365Z" fill="white"/>
</svg>
